<svg xmlns="http://www.w3.org/2000/svg" xmlns:xlink="http://www.w3.org/1999/xlink" width="500" zoomAndPan="magnify" viewBox="0 0 375 374.999991" height="500" preserveAspectRatio="xMidYMid meet" version="1.0"><defs><clipPath id="34ef3498f7"><path d="M 6.574219 6.574219 L 368.074219 6.574219 L 368.074219 368.074219 L 6.574219 368.074219 Z M 6.574219 6.574219 " clip-rule="nonzero"/></clipPath></defs><path fill="#07a5c3" d="M 100.800781 249.152344 L 206.511719 143.441406 C 205.308594 141.0625 204.65625 138.402344 204.65625 135.570312 C 204.65625 125.84375 212.527344 117.949219 222.28125 117.949219 C 232.007812 117.949219 239.878906 125.84375 239.878906 135.570312 C 239.878906 145.296875 232.007812 153.195312 222.28125 153.195312 C 219.449219 153.195312 216.765625 152.515625 214.382812 151.3125 L 178.210938 187.484375 L 100.800781 264.921875 L 100.800781 291.339844 L 222.28125 291.339844 C 250.832031 291.367188 274.195312 267.976562 274.195312 239.425781 C 274.195312 221.402344 264.894531 205.433594 250.832031 196.109375 L 215.335938 231.605469 C 216.539062 233.988281 217.191406 236.644531 217.191406 239.476562 C 217.191406 249.226562 209.320312 257.097656 199.570312 257.097656 C 189.84375 257.097656 181.972656 249.226562 181.972656 239.476562 C 181.972656 229.75 189.84375 221.878906 199.570312 221.878906 C 202.402344 221.878906 205.082031 222.53125 207.464844 223.734375 L 240.402344 190.769531 L 258.953125 172.246094 C 268.355469 162.820312 274.195312 149.835938 274.195312 135.570312 C 274.195312 106.992188 250.832031 83.632812 222.28125 83.632812 L 100.800781 83.632812 L 100.800781 139.707031 L 108.195312 132.3125 C 107.519531 130.984375 107.144531 129.480469 107.144531 127.875 C 107.144531 122.386719 111.582031 117.949219 117.070312 117.949219 C 122.5625 117.949219 126.996094 122.386719 126.996094 127.875 C 126.996094 133.363281 122.5625 137.800781 117.070312 137.800781 C 115.46875 137.800781 113.960938 137.425781 112.632812 136.75 L 100.800781 148.605469 L 100.800781 191.070312 L 117.347656 174.5 L 153.167969 138.679688 C 152.214844 136.75 151.664062 134.566406 151.664062 132.289062 C 151.664062 124.367188 158.082031 117.949219 166.003906 117.949219 C 173.898438 117.949219 180.316406 124.367188 180.316406 132.289062 C 180.316406 140.183594 173.898438 146.601562 166.003906 146.601562 C 163.695312 146.601562 161.515625 146.074219 159.585938 145.097656 L 130.15625 174.5 L 100.800781 203.878906 Z M 100.800781 249.152344 " fill-opacity="1" fill-rule="evenodd"/><path fill="#07a5c3" d="M 207.441406 239.476562 C 207.441406 239.992188 207.390625 240.503906 207.289062 241.011719 C 207.1875 241.519531 207.039062 242.011719 206.839844 242.488281 C 206.644531 242.964844 206.402344 243.417969 206.113281 243.847656 C 205.828125 244.277344 205.5 244.675781 205.132812 245.042969 C 204.769531 245.40625 204.371094 245.734375 203.941406 246.019531 C 203.511719 246.308594 203.058594 246.550781 202.582031 246.75 C 202.101562 246.945312 201.609375 247.09375 201.105469 247.195312 C 200.597656 247.296875 200.085938 247.347656 199.570312 247.347656 C 199.050781 247.347656 198.539062 247.296875 198.03125 247.195312 C 197.527344 247.09375 197.035156 246.945312 196.554688 246.75 C 196.078125 246.550781 195.625 246.308594 195.195312 246.019531 C 194.765625 245.734375 194.367188 245.40625 194.003906 245.042969 C 193.636719 244.675781 193.3125 244.277344 193.023438 243.847656 C 192.738281 243.417969 192.496094 242.964844 192.296875 242.488281 C 192.097656 242.011719 191.949219 241.519531 191.847656 241.011719 C 191.746094 240.503906 191.699219 239.992188 191.699219 239.476562 C 191.699219 238.960938 191.746094 238.449219 191.847656 237.941406 C 191.949219 237.433594 192.097656 236.941406 192.296875 236.464844 C 192.496094 235.988281 192.738281 235.53125 193.023438 235.101562 C 193.3125 234.671875 193.636719 234.277344 194.003906 233.910156 C 194.367188 233.546875 194.765625 233.21875 195.195312 232.933594 C 195.625 232.644531 196.078125 232.402344 196.554688 232.203125 C 197.035156 232.007812 197.527344 231.855469 198.03125 231.757812 C 198.539062 231.65625 199.050781 231.605469 199.570312 231.605469 C 200.085938 231.605469 200.597656 231.65625 201.105469 231.757812 C 201.609375 231.855469 202.101562 232.007812 202.582031 232.203125 C 203.058594 232.402344 203.511719 232.644531 203.941406 232.933594 C 204.371094 233.21875 204.769531 233.546875 205.132812 233.910156 C 205.5 234.277344 205.828125 234.671875 206.113281 235.101562 C 206.402344 235.53125 206.644531 235.988281 206.839844 236.464844 C 207.039062 236.941406 207.1875 237.433594 207.289062 237.941406 C 207.390625 238.449219 207.441406 238.960938 207.441406 239.476562 Z M 207.441406 239.476562 " fill-opacity="1" fill-rule="nonzero"/><g clip-path="url(#34ef3498f7)"><path fill="#07a5c3" d="M 187.484375 6.574219 C 237.445312 6.574219 282.691406 26.828125 315.429688 59.566406 C 348.167969 92.304688 368.425781 137.527344 368.425781 187.484375 C 368.425781 237.445312 348.167969 282.691406 315.429688 315.429688 C 282.691406 348.167969 237.445312 368.425781 187.484375 368.425781 C 137.527344 368.425781 92.304688 348.167969 59.566406 315.429688 C 26.828125 282.691406 6.574219 237.445312 6.574219 187.484375 C 6.574219 137.527344 26.828125 92.304688 59.566406 59.566406 C 92.304688 26.828125 137.527344 6.574219 187.484375 6.574219 Z M 304.804688 70.195312 C 274.773438 40.164062 233.308594 21.589844 187.484375 21.589844 C 141.6875 21.589844 100.199219 40.164062 70.195312 70.195312 C 40.164062 100.199219 21.589844 141.6875 21.589844 187.484375 C 21.589844 233.308594 40.164062 274.773438 70.195312 304.804688 C 100.199219 334.832031 141.6875 353.382812 187.484375 353.382812 C 233.308594 353.382812 274.773438 334.832031 304.804688 304.804688 C 334.832031 274.773438 353.382812 233.308594 353.382812 187.484375 C 353.382812 141.6875 334.832031 100.199219 304.804688 70.195312 Z M 304.804688 70.195312 " fill-opacity="1" fill-rule="nonzero"/></g></svg>